<svg width="24" height="24" viewBox="0 0 24 24" fill="none" xmlns="http://www.w3.org/2000/svg" data-id="IcProductDuotoneAirportTransportFill"><path fill-rule="evenodd" clip-rule="evenodd" d="M19.5 16.5L19 15H10V14H13H14H14.8371C15.1693 14 15.4092 13.682 15.3179 13.3626L15.1217 12.6758C15.088 12.5578 15.0474 12.4432 15.0006 12.3323L17 9H21C21.5523 9 22 8.55228 22 8C22 7.44772 21.5523 7 21 7H17L14 2H13L14 7H11L10 6H9L9.5 8H7V3C7 1.89543 7.89543 1 9 1H21C22.1046 1 23 1.89543 23 3V13C23 14.1046 22.1046 15 21 15L20.5 16.5L21 18V21.5C21 22.0523 20.5523 22.5 20 22.5C19.4477 22.5 19 22.0523 19 21.5V18L19.5 16.5ZM13.6313 10.8435L14 9H11L10 10V10.5H12.2371C12.7354 10.5 13.2112 10.6229 13.6313 10.8435Z" fill="#CDD0D1"></path><path fill-rule="evenodd" clip-rule="evenodd" d="M12.7913 9C13.1976 9 13.5921 9.06115 13.9649 9.17557L13.6313 10.8435C13.2112 10.6229 12.7354 10.5 12.2371 10.5H8.7629C7.42346 10.5 6.24631 11.3879 5.87833 12.6758L5.6821 13.3626C5.59084 13.682 5.83068 14 6.16286 14H13H14H14.8371C15.1693 14 15.4092 13.682 15.3179 13.3626L15.1217 12.6758C15.088 12.5578 15.0474 12.4432 15.0006 12.3323L16.0184 10.636C16.338 11.072 16.5729 11.5779 16.6961 12.1323L17 13.5L17.9207 13.1931C18.2531 13.0823 18.6164 13.2328 18.7731 13.5461C18.9086 13.8172 18.8555 14.1445 18.6412 14.3588L18 15C18.5523 15 19 15.4477 19 16V18.382C19 19.0672 18.6129 19.6936 18 20V21C18 21.8284 17.3284 22.5 16.5 22.5C15.6716 22.5 15 21.8284 15 21V20H6V21C6 21.8284 5.32843 22.5 4.5 22.5C3.67157 22.5 3 21.8284 3 21V20C2.38713 19.6936 2 19.0672 2 18.382V16C2 15.4477 2.44772 15 3 15L2.35881 14.3588C2.14453 14.1445 2.09141 13.8172 2.22693 13.5461C2.38362 13.2328 2.74689 13.0823 3.07927 13.1931L4 13.5L4.30394 12.1323C4.71064 10.3021 6.33389 9 8.20869 9H9.25L9 10H10L11 9H12.7913ZM5.5 18H7.5C8.05228 18 8.5 17.5523 8.5 17C8.5 16.4477 8.05228 16 7.5 16H5.5C4.94772 16 4.5 16.4477 4.5 17C4.5 17.5523 4.94772 18 5.5 18ZM15.5 18H13.5C12.9477 18 12.5 17.5523 12.5 17C12.5 16.4477 12.9477 16 13.5 16H15.5C16.0523 16 16.5 16.4477 16.5 17C16.5 17.5523 16.0523 18 15.5 18Z" fill="#CDD0D1"></path></svg>