<svg width="24" height="24" viewBox="0 0 24 24" fill="none" xmlns="http://www.w3.org/2000/svg" data-id="IcProductDuotoneBusFill"><path fill-rule="evenodd" clip-rule="evenodd" d="M3 9V11C3 11.5523 3.44772 12 4 12H5V8H4C3.44772 8 3 8.44772 3 9ZM21 11V9C21 8.44772 20.5523 8 20 8H19V12H20C20.5523 12 21 11.5523 21 11ZM8.5 20.75V20H15.5V20.75C15.5 21.7165 16.2835 22.5 17.25 22.5C18.2165 22.5 19 21.7165 19 20.75V19H5V20.75C5 21.7165 5.7835 22.5 6.75 22.5C7.7165 22.5 8.5 21.7165 8.5 20.75Z" fill="#CDD0D1"></path><path fill-rule="evenodd" clip-rule="evenodd" d="M16 2H8C5.79086 2 4 3.79086 4 6V18.75C4 19.3023 4.44772 19.75 5 19.75H19C19.5523 19.75 20 19.3023 20 18.75V6C20 3.79086 18.2091 2 16 2ZM8 5C7.44772 5 7 5.44772 7 6C7 6.55228 7.44772 7 8 7H16C16.5523 7 17 6.55228 17 6C17 5.44772 16.5523 5 16 5H8ZM6 9C6 8.44772 6.44772 8 7 8H17C17.5523 8 18 8.44772 18 9V13C18 13.5523 17.5523 14 17 14H7C6.44772 14 6 13.5523 6 13V9ZM6 17C6 16.4477 6.44772 16 7 16H9C9.55228 16 10 16.4477 10 17C10 17.5523 9.55228 18 9 18H7C6.44772 18 6 17.5523 6 17ZM14 17C14 16.4477 14.4477 16 15 16H17C17.5523 16 18 16.4477 18 17C18 17.5523 17.5523 18 17 18H15C14.4477 18 14 17.5523 14 17Z" fill="#CDD0D1"></path></svg>