<svg width="24" height="24" viewBox="0 0 16 16" fill="none" xmlns="http://www.w3.org/2000/svg" data-id="IcProductDuotoneFlightFill16"><g clip-path="url(#clip0_4978_5190)"><path fill-rule="evenodd" clip-rule="evenodd" d="M12.3067 1.22239C12.9992 0.606829 14.0515 0.637735 14.7067 1.29288C15.3619 1.94801 15.3928 3.00027 14.7774 3.69282L11.6317 7.23225L13.9483 14.1839C14.1067 14.6591 13.889 15.1783 13.4389 15.3984C12.9889 15.6184 12.4455 15.4716 12.1676 15.0547L8.73502 9.90587L6.50032 11.4702V14C6.50032 14.4794 6.16014 14.8913 5.68943 14.982C5.21871 15.0726 4.74987 14.8165 4.57184 14.3714L4.02318 12.9997C3.75754 13.0059 3.49182 12.9064 3.29252 12.7071C3.09332 12.5079 2.99383 12.2424 2.99987 11.9769L1.62893 11.4285C1.18385 11.2505 0.92771 10.7816 1.01836 10.3109C1.10901 9.84019 1.52095 9.50001 2.00032 9.50001H4.52895L6.09375 7.2646L0.944927 3.83208C0.528082 3.55419 0.3812 3.01072 0.601306 2.56068C0.821413 2.11064 1.34057 1.89292 1.81585 2.05134L8.76737 4.36848L12.3067 1.22239Z" fill="#CDD0D1"></path></g><defs><clipPath id="clip0_4978_5190"><rect width="16" height="16" fill="white"></rect></clipPath></defs></svg>