<svg width="24" height="24" viewBox="0 0 24 24" fill="none" xmlns="http://www.w3.org/2000/svg">
<path fill-rule="evenodd" clip-rule="evenodd" d="M12 22C17.5228 22 22 17.5228 22 12C22 6.47715 17.5228 2 12 2C6.47715 2 2 6.47715 2 12C2 17.5228 6.47715 22 12 22Z" stroke="#0264C8" stroke-width="2" stroke-linecap="round" stroke-linejoin="round"></path>
<path d="M10 7.5L10.9411 7.02945C11.6077 6.69616 12.3923 6.69616 13.0589 7.02945L13.367 7.18348C14.3311 7.66556 14.8533 8.7333 14.6419 9.79033V9.79033C14.5494 10.2531 14.3219 10.6781 13.9882 11.0118L12.8442 12.1558C12.6162 12.3838 12.4265 12.6471 12.2823 12.9355L12.2111 13.0777C12.0723 13.3555 12 13.6617 12 13.9722V14M11.75 16.75H12.25V17.25H11.75V16.75Z" stroke="#0264C8" stroke-width="2" stroke-linecap="round" stroke-linejoin="round"></path>
</svg>