<svg width="24" height="24" viewBox="0 0 24 24" fill="none" xmlns="http://www.w3.org/2000/svg" data-id="IcProductDuotoneHotelFill"><path fill-rule="evenodd" clip-rule="evenodd" d="M2 4V21C2 21.5523 2.44772 22 3 22H6.5V20.75C6.5 20.3358 6.16421 20 5.75 20C5.33579 20 5 19.6642 5 19.25V19C5 18.4477 5.44772 18 6 18H11C11.5523 18 12 18.4477 12 19V19.25C12 19.6642 11.6642 20 11.25 20C10.8358 20 10.5 20.3358 10.5 20.75V22H14H15H21C21.5523 22 22 21.5523 22 21V12C22 10.8954 21.1046 10 20 10H15V4C15 3.44772 14.5523 3 14 3H12.5C12.2061 1.82459 11.15 1 9.93845 1H7.06155C5.84996 1 4.79385 1.82459 4.5 3H3C2.44772 3 2 3.44771 2 4ZM4 6C4 5.44772 4.44772 5 5 5H7C7.55228 5 8 5.44772 8 6V7C8 7.55228 7.55228 8 7 8H5C4.44772 8 4 7.55228 4 7V6ZM10 5C9.44772 5 9 5.44772 9 6V7C9 7.55228 9.44772 8 10 8H12C12.5523 8 13 7.55228 13 7V6C13 5.44772 12.5523 5 12 5H10ZM9 10C9 9.44772 9.44772 9 10 9H12C12.5523 9 13 9.44771 13 10V11C13 11.5523 12.5523 12 12 12H10C9.44772 12 9 11.5523 9 11V10ZM4 10C4 9.44771 4.44772 9 5 9H7C7.55228 9 8 9.44772 8 10V11C8 11.5523 7.55228 12 7 12H5C4.44772 12 4 11.5523 4 11V10ZM5 13C4.44772 13 4 13.4477 4 14V15C4 15.5523 4.44772 16 5 16H7C7.55228 16 8 15.5523 8 15V14C8 13.4477 7.55228 13 7 13H5ZM10 13C9.44772 13 9 13.4477 9 14V15C9 15.5523 9.44772 16 10 16H12C12.5523 16 13 15.5523 13 15V14C13 13.4477 12.5523 13 12 13H10ZM16 14V13C16 12.4477 16.4477 12 17 12H19C19.5523 12 20 12.4477 20 13V14C20 14.5523 19.5523 15 19 15H17C16.4477 15 16 14.5523 16 14ZM19 16H17C16.4477 16 16 16.4477 16 17V18C16 18.5523 16.4477 19 17 19H19C19.5523 19 20 18.5523 20 18V17C20 16.4477 19.5523 16 19 16Z" fill="#235D9F"></path><path d="M16 7V3C16 2.44772 16.4477 2 17 2C17.5523 2 18 2.44772 18 3V4H20V3C20 2.44772 20.4477 2 21 2C21.5523 2 22 2.44772 22 3V7C22 7.55228 21.5523 8 21 8C20.4477 8 20 7.55228 20 7V6H18V7C18 7.55228 17.5523 8 17 8C16.4477 8 16 7.55228 16 7Z" fill="#235D9F"></path></svg>