<svg width="24" height="24" viewBox="0 0 24 24" fill="none" xmlns="http://www.w3.org/2000/svg" data-id="IcSystemMenuViewGrid"><path d="M4 18.5C4 18.2239 4.22386 18 4.5 18H5.5C5.77614 18 6 18.2239 6 18.5V19.5C6 19.7761 5.77614 20 5.5 20H4.5C4.22386 20 4 19.7761 4 19.5V18.5Z" stroke="#CDD0D1" stroke-width="2" stroke-linecap="round" stroke-linejoin="round"></path><path d="M11 18.5C11 18.2239 11.2239 18 11.5 18H12.5C12.7761 18 13 18.2239 13 18.5V19.5C13 19.7761 12.7761 20 12.5 20H11.5C11.2239 20 11 19.7761 11 19.5V18.5Z" stroke="#CDD0D1" stroke-width="2" stroke-linecap="round" stroke-linejoin="round"></path><path d="M18 18.5C18 18.2239 18.2239 18 18.5 18H19.5C19.7761 18 20 18.2239 20 18.5V19.5C20 19.7761 19.7761 20 19.5 20H18.5C18.2239 20 18 19.7761 18 19.5V18.5Z" stroke="#CDD0D1" stroke-width="2" stroke-linecap="round" stroke-linejoin="round"></path><path d="M4 11.5C4 11.2239 4.22386 11 4.5 11H5.5C5.77614 11 6 11.2239 6 11.5V12.5C6 12.7761 5.77614 13 5.5 13H4.5C4.22386 13 4 12.7761 4 12.5V11.5Z" stroke="#CDD0D1" stroke-width="2" stroke-linecap="round" stroke-linejoin="round"></path><path d="M11 11.5C11 11.2239 11.2239 11 11.5 11H12.5C12.7761 11 13 11.2239 13 11.5V12.5C13 12.7761 12.7761 13 12.5 13H11.5C11.2239 13 11 12.7761 11 12.5V11.5Z" stroke="#CDD0D1" stroke-width="2" stroke-linecap="round" stroke-linejoin="round"></path><path d="M18 11.5C18 11.2239 18.2239 11 18.5 11H19.5C19.7761 11 20 11.2239 20 11.5V12.5C20 12.7761 19.7761 13 19.5 13H18.5C18.2239 13 18 12.7761 18 12.5V11.5Z" stroke="#CDD0D1" stroke-width="2" stroke-linecap="round" stroke-linejoin="round"></path><path d="M11 4.5C11 4.22386 11.2239 4 11.5 4H12.5C12.7761 4 13 4.22386 13 4.5V5.5C13 5.77614 12.7761 6 12.5 6H11.5C11.2239 6 11 5.77614 11 5.5V4.5Z" stroke="#CDD0D1" stroke-width="2" stroke-linecap="round" stroke-linejoin="round"></path><path d="M18 4.5C18 4.22386 18.2239 4 18.5 4H19.5C19.7761 4 20 4.22386 20 4.5V5.5C20 5.77614 19.7761 6 19.5 6H18.5C18.2239 6 18 5.77614 18 5.5V4.5Z" stroke="#CDD0D1" stroke-width="2" stroke-linecap="round" stroke-linejoin="round"></path><path d="M3.5 5C3.5 4.17157 4.17157 3.5 5 3.5V3.5C5.82843 3.5 6.5 4.17157 6.5 5V5C6.5 5.82843 5.82843 6.5 5 6.5V6.5C4.17157 6.5 3.5 5.82843 3.5 5V5Z" stroke="#CDD0D1" stroke-width="2" stroke-linecap="round" stroke-linejoin="round"></path></svg>