<svg width="24" height="24" viewBox="0 0 16 16" fill="none" xmlns="http://www.w3.org/2000/svg" data-id="IcProductDuotoneTrainFill16"><path fill-rule="evenodd" clip-rule="evenodd" d="M5.03035 11.4697C5.32325 11.7626 5.32325 12.2374 5.03035 12.5303L3.5 14.25H12.5L10.9697 12.5303C10.6768 12.2374 10.6768 11.7626 10.9697 11.4697C11.2626 11.1768 11.7375 11.1768 12.0304 11.4697L14.5304 13.9697C14.7449 14.1842 14.809 14.5068 14.6929 14.787C14.5768 15.0673 14.3034 15.25 14 15.25H2.00002C1.69668 15.25 1.4232 15.0673 1.30711 14.787C1.19103 14.5068 1.25519 14.1842 1.46969 13.9697L3.96969 11.4697C4.26259 11.1768 4.73746 11.1768 5.03035 11.4697Z" fill="#CDD0D1"></path><path fill-rule="evenodd" clip-rule="evenodd" d="M2 5.5C2 3.01472 4.01472 1 6.5 1H9.5C11.9853 1 14 3.01472 14 5.5V9L14.8934 10.7868C14.9635 10.927 15 11.0816 15 11.2384C15 11.6892 14.7011 12.0854 14.2677 12.2092L8 14L1.73233 12.2092C1.29886 12.0854 1 11.6892 1 11.2384C1 11.0816 1.0365 10.927 1.1066 10.7868L2 9V5.5ZM6 4C6 3.44772 6.44772 3 7 3H9C9.55229 3 10 3.44772 10 4C10 4.55228 9.55229 5 9 5H7C6.44772 5 6 4.55228 6 4ZM4.5 10C4.22386 10 4 10.2239 4 10.5C4 10.7761 4.22386 11 4.5 11H5.5C5.77614 11 6 10.7761 6 10.5C6 10.2239 5.77614 10 5.5 10H4.5ZM10 10.5C10 10.2239 10.2239 10 10.5 10H11.5C11.7761 10 12 10.2239 12 10.5C12 10.7761 11.7761 11 11.5 11H10.5C10.2239 11 10 10.7761 10 10.5ZM7.5 8.43361V6.94139C7.5 6.68923 7.31223 6.47653 7.06202 6.44525L4.06202 6.07025C3.76359 6.03295 3.5 6.26564 3.5 6.56639V8.05861C3.5 8.31077 3.68777 8.52347 3.93798 8.55475L6.93798 8.92975C7.23641 8.96705 7.5 8.73436 7.5 8.43361ZM8.5 6.94139V8.43361C8.5 8.73436 8.76359 8.96705 9.06202 8.92975L12.062 8.55475C12.3122 8.52347 12.5 8.31077 12.5 8.05861V6.56639C12.5 6.26564 12.2364 6.03295 11.938 6.07025L8.93798 6.44525C8.68777 6.47653 8.5 6.68923 8.5 6.94139Z" fill="#CDD0D1"></path></svg>