<svg width="135" height="43" viewBox="0 0 135 43" fill="none" xmlns="http://www.w3.org/2000/svg">
<path fill-rule="evenodd" clip-rule="evenodd" d="M122.224 7.50613C127.506 4.14735 134.137 3.50244 134.137 3.50244C134.137 3.50244 127.101 11.4998 125.381 15.1946C124.85 16.8064 125.962 18.1176 125.962 18.1176C125.962 18.1176 122.88 14.6661 122.224 7.50613Z" fill="white"/>
<path fill-rule="evenodd" clip-rule="evenodd" d="M124.511 6.24365C123.736 6.61449 122.967 7.03328 122.224 7.50576C122.558 11.1477 123.519 13.8301 124.383 15.5869C124.846 16.4044 125.286 17.0885 125.617 17.5773C125.449 17.2514 125.276 16.797 125.243 16.2671C124.795 14.5529 124.384 11.5234 124.511 6.24365Z" fill="white"/>
<path fill-rule="evenodd" clip-rule="evenodd" d="M117.488 10.6305C117.488 10.6305 117.14 9.40915 117.02 9.05688C116.698 8.10802 116.368 7.14332 116.368 5.49683C116.368 3.23907 120.213 0.830208 122.557 0.0737305C121.921 8.29066 122.845 10.8057 123.695 13.5369C125.708 20.2575 130.306 21.2293 130.76 21.6849C129.587 21.4316 130.257 21.9784 130.257 21.9784C130.257 21.9784 128.385 20.6764 124.617 19.6105C120.849 18.5445 117.909 18.3814 116.111 17.3599C114.726 16.3195 114.681 15.472 114.023 14.9031C111.861 13.0342 106.417 12.2482 106.417 12.2482L111.101 13.0113C111.101 13.0113 111.744 13.0113 112.504 12.7384C112.668 12.717 113.189 12.1224 114.319 12.4983C114.784 12.6514 114.653 12.8179 115.983 13.1921C117.67 13.6663 117.488 10.6305 117.488 10.6305Z" fill="white"/>
<path fill-rule="evenodd" clip-rule="evenodd" d="M1.87386 24.812C1.87386 29.6167 5.5364 30.1853 7.38186 30.1853C7.9497 30.1853 8.34718 30.1285 8.34718 30.1285V27.6835C8.34718 27.6835 8.09166 27.7403 7.69417 27.7403C6.64368 27.7403 4.62786 27.3707 4.62786 24.4993V18.1026H8.09166V15.885H4.62786V11.7342H1.95903V15.885H0V18.1026H1.87386V24.812ZM10.8844 30.0716H13.6384V24.1866C13.6384 23.3052 13.7236 22.4239 13.9791 21.5994C14.6321 19.4672 16.2504 18.2163 18.0107 18.2163C18.4366 18.2163 18.8057 18.3016 18.8057 18.3016V15.5723C18.8057 15.5723 18.465 15.5154 18.0959 15.5154C15.8813 15.5154 14.2062 17.1644 13.5532 19.2682H13.4964C13.4964 19.2682 13.5532 18.7849 13.5532 18.1878V15.686H10.8844V30.0716ZM19.7301 26.0345C19.7301 28.906 22.1434 30.4128 24.6135 30.4128C28.0489 30.4128 29.2129 27.5697 29.2129 27.5697H29.2697C29.2697 27.5697 29.2129 28.0531 29.2129 28.707V30.0716H31.7682V20.974C31.7682 17.3349 29.724 15.3448 26.0898 15.3448C22.7964 15.3448 20.7238 17.0506 20.7238 17.0506L21.8595 19.0692C21.8595 19.0692 23.6481 17.6761 25.8627 17.6761C27.6798 17.6761 29.0142 18.4721 29.0142 20.8318V21.0877H28.3896C25.9763 21.0877 19.7301 21.2867 19.7301 26.0345ZM22.5125 25.8924C22.5125 23.3052 26.2602 23.1631 28.3328 23.1631H29.0426V23.618C29.0426 25.7502 27.5378 28.1952 25.2097 28.1952C23.421 28.1952 22.5125 27.058 22.5125 25.8924ZM38.7345 30.0716H41.9144L47.2236 15.686H44.3277L40.8355 25.4091C40.5516 26.2051 40.3528 27.3707 40.3244 27.3707H40.2676C40.2393 27.3707 40.0689 26.2051 39.785 25.4091L36.2928 15.686H33.3684L38.7345 30.0716ZM47.9493 22.8788C47.9493 27.1433 51.044 30.4128 55.5583 30.4128C58.9937 30.4128 61.1231 28.3658 61.1231 28.3658L59.9874 26.3473C59.9874 26.3473 58.1987 28.0246 55.7286 28.0246C53.1734 28.0246 50.9304 26.4325 50.7885 23.2768H61.265C61.265 23.2768 61.3502 22.4523 61.3502 22.0828C61.3502 18.3584 59.1924 15.3448 55.1324 15.3448C51.044 15.3448 47.9493 18.3016 47.9493 22.8788ZM50.8736 21.2014C51.2711 18.8417 52.9746 17.534 55.0756 17.534C56.9211 17.534 58.4542 18.728 58.5394 21.2014H50.8736ZM63.8929 26.1482C63.8929 29.7589 66.1927 30.1853 67.7542 30.1853C68.2369 30.1853 68.6627 30.1285 68.6627 30.1285V27.6835C68.6627 27.6835 68.4356 27.7119 68.1801 27.7119C67.3283 27.7119 66.6469 27.3992 66.6469 25.6649V10H63.8929V26.1482ZM69.8994 22.8504C69.8994 27.2286 73.3632 30.4128 77.6504 30.4128C81.9375 30.4128 85.4013 27.2286 85.4013 22.8504C85.4013 18.5006 81.9375 15.3448 77.6504 15.3448C73.3632 15.3448 69.8994 18.5006 69.8994 22.8504ZM72.7102 22.8504C72.7102 19.8652 74.9532 17.733 77.6504 17.733C80.376 17.733 82.5906 19.8652 82.5906 22.8504C82.5906 25.864 80.376 28.0246 77.6504 28.0246C74.9532 28.0246 72.7102 25.864 72.7102 22.8504ZM88.1089 30.0716H90.8629V23.3052H92.9355L97.251 30.0716H100.459L95.15 22.0828V22.0259L99.9199 15.686H96.7968L92.8787 20.974H90.8629V10H88.1089V30.0716ZM101.242 26.0345C101.242 28.906 103.655 30.4128 106.125 30.4128C109.561 30.4128 110.725 27.5697 110.725 27.5697H110.781C110.781 27.5697 110.725 28.0531 110.725 28.707V30.0716H113.28V20.974C113.28 17.3349 111.236 15.3448 107.602 15.3448C104.308 15.3448 102.235 17.0506 102.235 17.0506L103.371 19.0692C103.371 19.0692 105.16 17.6761 107.374 17.6761C109.191 17.6761 110.526 18.4721 110.526 20.8318V21.0877H109.901C107.488 21.0877 101.242 21.2867 101.242 26.0345ZM104.024 25.8924C104.024 23.3052 107.772 23.1631 109.844 23.1631H110.554V23.618C110.554 25.7502 109.049 28.1952 106.721 28.1952C104.933 28.1952 104.024 27.058 104.024 25.8924Z" fill="white"/>
</svg>
